<?xml version="1.0" encoding="utf-8"?>
<!-- Generator: Adobe Illustrator 15.1.0, SVG Export Plug-In . SVG Version: 6.00 Build 0)  -->
<!DOCTYPE svg PUBLIC "-//W3C//DTD SVG 1.1//EN" "http://www.w3.org/Graphics/SVG/1.1/DTD/svg11.dtd">
<svg version="1.1" id="Layer_1" xmlns="http://www.w3.org/2000/svg" xmlns:xlink="http://www.w3.org/1999/xlink" x="0px" y="0px"
	 width="318.485px" height="61.959px" viewBox="774.877 349.15 318.485 61.959"
	 enable-background="new 774.877 349.15 318.485 61.959" xml:space="preserve">
<g>
	<path fill="#3B5998" d="M949.964,369.821c-4.786-0.513-8.926,0.938-12.428,5.147V349.15l-12.676,1.535v59.758h12.676v-3.547
		c1.709,1.221,3.372,2.689,5.317,3.386c7.385,2.647,17.123,0.489,20.531-9.389c2.187-6.339,2.13-12.836,0.483-19.244
		c-1.828-7.12-6.567-11.049-13.906-11.831L949.964,369.821z M951.856,395.7c-0.557,3.94-3.692,6.005-7.416,5.716
		c-0.932-0.073-1.771-0.262-2.527-0.56c-3-1.723-3.907-4.606-4.171-6.418c-0.002,0-0.006,0-0.006,0.003
		c-0.203-2.803-0.426-8.664,0.941-11.434c1.16-2.123,3.186-3.279,5.872-3.368c3.818-0.125,6.705,1.769,7.273,5.642
		c0.503,3.413,0.526,7.009,0.037,10.419H951.856z M994.884,370.559c-4.403-1.18-8.853-1.165-13.246,0.007
		c-6.581,1.753-10.993,5.918-12.413,12.542c-0.776,3.613-0.932,7.455-0.725,11.162c0.469,8.475,5.71,14.514,13.847,16.39
		c0.114,0.029,0.233,0.048,0.35,0.073h-0.003l0.059,0.014c0.314,0.062,0.626,0.12,0.941,0.168l0.316,0.029h0.009
		c0.394,0.072,0.868,0.127,1.366,0.166c1.593,0.169,3.619,0.291,5.312,0.09c0.012,0,0.018-0.003,0.026-0.004
		c0.087,0,0.174,0,0.259-0.008c8.401-0.437,14.776-5.734,16.638-13.861c1.02-4.456,1.02-8.936,0.033-13.396
		C1006.105,376.93,1001.86,372.427,994.884,370.559L994.884,370.559z M995.423,395.059c-0.044,0.262-0.088,0.524-0.146,0.783
		c-0.845,3.739-3.559,5.764-7.179,5.595c-3.896-0.178-6.567-2.454-6.941-6.345c-0.271-2.842-0.291-5.744-0.059-8.588
		c0.372-4.489,3.179-6.945,7.391-6.861c3.461,0.067,5.926,2.028,6.805,5.355c0.799,3.35,0.204,9.299,0.127,10.063L995.423,395.059z
		 M804.607,370.349h-9.048v-6.017c0.662-5.688,10.058-4.607,10.058-4.607l0.002-0.389l-0.004-0.043v-9.344h-0.009
		c-0.32-0.079-18.686-4.438-22.333,9.54c0,0.003,0,0.007-0.005,0.01l-0.024,0.092c-0.574,1.747-0.535,9.75-0.527,10.756h-7.84
		v10.703h8.329v29.106h12.125v-29.108h9.275l1.044-10.702h-1.043V370.349z M833.527,375.468c-0.148-0.164-0.296-0.323-0.423-0.455
		c-0.021-0.022-0.036-0.039-0.058-0.059c-0.175-0.185-0.299-0.306-0.299-0.306c-2.854-2.905-3.932-3.626-6.17-4.287
		c-8.601-2.533-16.975,1.972-19.628,10.626c-1.628,5.317-1.651,10.789-0.695,16.177c2.063,11.66,10.737,15.565,19.981,13.641
		c2.837-0.591,4.945-2.359,6.902-4.816c0,0,0.175-0.216,0.39-0.636v5.133h11.829v-40.092h-11.829L833.527,375.468L833.527,375.468z
		 M832.486,395.643c-0.396,3.707-3.396,5.934-6.941,5.795c-3.633-0.143-6.037-2.088-6.822-5.573
		c-0.94-4.96,0.16-10.853,0.254-11.329c0.949-3.33,3.371-4.977,6.924-4.893c3.488,0.077,6.178,2.141,6.571,5.756
		C832.84,388.78,832.85,392.26,832.486,395.643L832.486,395.643z M881.486,407.61c-0.549-2.01-1.174-3.99-1.776-5.901l-0.572-2.129
		c0,0-14.827,7.117-17.139-6.407c-0.215-2.232-0.149-4.536,0.157-6.739c0.577-4.156,3.113-6.383,7.15-6.765
		c1.361-0.131,2.78-0.063,4.129,0.165c1.838,0.31,3.632,0.863,5.643,1.359c0.699-2.138,1.412-4.252,2.078-6.383
		c0.104-0.335,0.191-0.622,0.262-0.88l0.335-1.281c-0.085-0.169-0.287-0.345-0.558-0.518c-0.341-0.283-0.922-0.521-1.829-0.853
		c-0.364-0.131-0.728-0.248-1.092-0.364c-0.325-0.102-0.539-0.163-0.539-0.163h0.003c-3.896-1.114-7.892-1.2-11.954-0.771
		c-8.563,0.902-14.375,5.955-15.988,14.299c-0.845,4.387-0.806,8.829,0.166,13.231c1.456,6.592,5.45,10.851,11.946,12.755
		c4.236,1.242,8.582,1.305,12.903,0.631c1.817-0.284,4.424-1.227,6.295-1.897l0.713-0.25l-0.337-1.141L881.486,407.61
		L881.486,407.61z M920.518,391.925c-0.059-2.773-0.02-5.563-0.413-8.289c-1.081-7.479-5.635-12.211-12.998-13.447
		c-2.811-0.471-5.78-0.408-8.638-0.136c-7.814,0.743-13.745,5.612-14.963,12.938c-0.739,4.444-0.834,9.159-0.237,13.623
		c0.903,6.716,4.17,10.994,9.826,13.047h0.003c0.024,0,0.049,0.005,0.072,0.008v0.004c2.58,0.771,15.216,4.077,26.353-1.521
		l-0.447-1.64c-0.004,0.004-0.012,0.004-0.015,0.004c-0.517-2.188-1.136-4.352-1.721-6.52l-0.063-0.213c0,0-0.233,0.083-0.641,0.215
		c-0.011,0-0.022,0-0.029,0.003c-0.488,0.126-0.969,0.276-1.446,0.437c-0.087,0.029-0.175,0.055-0.265,0.081
		c-1.687,0.475-4.096,1.061-6.64,1.388c-2.138,0.216-4.296,0.225-6.474,0.038c-3.539-0.582-6.244-2.479-6.116-6.957h22.824
		c0.165,0,0.332,0,0.495-0.003v0.003c0,0,1.49-0.019,1.553-0.034v-0.442l-0.023-2.584L920.518,391.925z M909.115,386.46H895.42
		c0.072-2.723,0.413-5.256,2.835-6.8c2.571-1.631,5.412-1.693,8.057-0.229c2.673,1.477,2.883,4.145,2.806,7.028H909.115z
		 M1093.362,370.812h-13.445l-11.679,18.257v-39.88l-12.675,1.535v59.758h12.675v-18.288l11.679,18.317h13.445l-12.673-19.883
		 M1038.115,370.553c-4.403-1.18-8.854-1.165-13.25,0.006c-6.577,1.753-10.988,5.916-12.409,12.537
		c-0.776,3.616-0.932,7.458-0.726,11.165c0.467,8.478,5.711,14.517,13.845,16.392c0.116,0.028,0.236,0.049,0.353,0.075h-0.003
		l0.059,0.012c0.312,0.063,0.626,0.121,0.942,0.167c0.104,0.011,0.211,0.021,0.315,0.026c0.003,0.003,0.006,0.003,0.009,0.003
		c0.397,0.073,0.867,0.128,1.363,0.168c1.596,0.169,3.625,0.291,5.314,0.09l0.025-0.006c0.088,0,0.176,0,0.257-0.006
		c8.401-0.437,14.779-5.737,16.641-13.862c1.019-4.455,1.019-8.936,0.036-13.396c-1.549-7.001-5.792-11.503-12.77-13.37
		L1038.115,370.553z M1038.651,395.051c-0.044,0.266-0.088,0.524-0.146,0.787c-0.845,3.737-3.558,5.759-7.179,5.591
		c-3.894-0.181-6.564-2.455-6.939-6.344c-0.271-2.84-0.296-5.743-0.059-8.587c0.374-4.49,3.179-6.945,7.393-6.862
		c3.454,0.066,5.922,2.028,6.8,5.355c0.797,3.346,0.208,9.3,0.128,10.062L1038.651,395.051z"/>
</g>
</svg>
