<?xml version="1.0" encoding="utf-8"?>
<!-- Generator: Adobe Illustrator 15.1.0, SVG Export Plug-In . SVG Version: 6.00 Build 0)  -->
<!DOCTYPE svg PUBLIC "-//W3C//DTD SVG 1.1//EN" "http://www.w3.org/Graphics/SVG/1.1/DTD/svg11.dtd">
<svg version="1.1" id="Layer_1" xmlns="http://www.w3.org/2000/svg" xmlns:xlink="http://www.w3.org/1999/xlink" x="0px" y="0px"
	 width="176.989px" height="181.104px" viewBox="401.09 409.447 176.989 181.104"
	 enable-background="new 401.09 409.447 176.989 181.104" xml:space="preserve">
<g>
	<g>
		<defs>
			<path id="SVGID_1_" d="M576.02,483.536h-84.378v34.986h48.569c-4.527,22.228-23.461,34.985-48.568,34.985
				c-29.636,0-53.509-23.873-53.509-53.508s23.873-53.509,53.509-53.509c12.759,0,24.284,4.528,33.34,11.937l26.342-26.343
				c-16.052-13.994-36.632-22.638-59.683-22.638c-50.215,0-90.552,40.337-90.552,90.553c0,50.215,40.337,90.552,90.552,90.552
				c45.277,0,86.438-32.928,86.438-90.552C578.078,494.649,577.254,488.887,576.02,483.536z"/>
		</defs>
		<clipPath id="SVGID_2_">
			<use xlink:href="#SVGID_1_"  overflow="visible"/>
		</clipPath>
		<path clip-path="url(#SVGID_2_)" fill="#FBBC05" d="M392.857,553.508V446.491L462.829,500L392.857,553.508z"/>
	</g>
</g>
<g>
	<g>
		<defs>
			<path id="SVGID_3_" d="M576.02,483.536h-84.378v34.986h48.569c-4.527,22.228-23.461,34.985-48.568,34.985
				c-29.636,0-53.509-23.873-53.509-53.508s23.873-53.509,53.509-53.509c12.759,0,24.284,4.528,33.34,11.937l26.342-26.343
				c-16.052-13.994-36.632-22.638-59.683-22.638c-50.215,0-90.552,40.337-90.552,90.553c0,50.215,40.337,90.552,90.552,90.552
				c45.277,0,86.438-32.928,86.438-90.552C578.078,494.649,577.254,488.887,576.02,483.536z"/>
		</defs>
		<clipPath id="SVGID_4_">
			<use xlink:href="#SVGID_3_"  overflow="visible"/>
		</clipPath>
		<path clip-path="url(#SVGID_4_)" fill="#EA4335" d="M392.857,446.491L462.829,500l28.812-25.108l98.785-16.052v-57.625H392.857
			V446.491z"/>
	</g>
</g>
<g>
	<g>
		<defs>
			<path id="SVGID_5_" d="M576.02,483.536h-84.378v34.986h48.569c-4.527,22.228-23.461,34.985-48.568,34.985
				c-29.636,0-53.509-23.873-53.509-53.508s23.873-53.509,53.509-53.509c12.759,0,24.284,4.528,33.34,11.937l26.342-26.343
				c-16.052-13.994-36.632-22.638-59.683-22.638c-50.215,0-90.552,40.337-90.552,90.553c0,50.215,40.337,90.552,90.552,90.552
				c45.277,0,86.438-32.928,86.438-90.552C578.078,494.649,577.254,488.887,576.02,483.536z"/>
		</defs>
		<clipPath id="SVGID_6_">
			<use xlink:href="#SVGID_5_"  overflow="visible"/>
		</clipPath>
		<path clip-path="url(#SVGID_6_)" fill="#34A853" d="M392.857,553.508l123.479-94.668l32.517,4.116l41.572-61.74v197.569H392.857
			V553.508z"/>
	</g>
</g>
<g>
	<g>
		<defs>
			<path id="SVGID_7_" d="M576.02,483.536h-84.378v34.986h48.569c-4.527,22.228-23.461,34.985-48.568,34.985
				c-29.636,0-53.509-23.873-53.509-53.508s23.873-53.509,53.509-53.509c12.759,0,24.284,4.528,33.34,11.937l26.342-26.343
				c-16.052-13.994-36.632-22.638-59.683-22.638c-50.215,0-90.552,40.337-90.552,90.553c0,50.215,40.337,90.552,90.552,90.552
				c45.277,0,86.438-32.928,86.438-90.552C578.078,494.649,577.254,488.887,576.02,483.536z"/>
		</defs>
		<clipPath id="SVGID_8_">
			<use xlink:href="#SVGID_7_"  overflow="visible"/>
		</clipPath>
		<path clip-path="url(#SVGID_8_)" fill="#4285F4" d="M590.426,598.784L462.829,500l-16.464-12.348l144.061-41.161V598.784z"/>
	</g>
</g>
</svg>
