<svg xmlns="http://www.w3.org/2000/svg" width="16" height="17" viewBox="0 0 16 17">
    <defs>
        <linearGradient id="imlz7o8yka" x1="136.092%" x2="-38.279%" y1="40.233%" y2="69.235%">
            <stop offset="0%" stop-color="#CC008C"/>
            <stop offset="100%" stop-color="#6D00F6"/>
        </linearGradient>
    </defs>
    <g fill="none" fill-rule="evenodd">
        <g>
            <g>
                <path fill="url(#imlz7o8yka)" fill-rule="nonzero" d="M10.758 0C13.653 0 16 2.347 16 5.242c0 .606-.105 1.207-.31 1.776l-3 8.332H4.494C2.012 15.35 0 13.338 0 10.856c0-.567.107-1.128.316-1.655L3.962 0h6.796z" transform="translate(-320 -446) translate(320 446.3)"/>
                <path fill="#FFF" d="M9.655 3.559L6.556 3.559 6.556 6.128 4.001 6.128 4.001 9.184 6.556 9.184 6.556 11.783 9.655 11.783 9.655 9.184 12.225 9.184 12.225 6.128 9.655 6.128z" transform="translate(-320 -446) translate(320 446.3)"/>
            </g>
        </g>
    </g>
</svg>
